<?xml version="1.0" encoding="UTF-8" standalone="no"?>
<!-- Created with Inkscape (http://www.inkscape.org/) -->

<svg
   xmlns:dc="http://purl.org/dc/elements/1.1/"
   xmlns:cc="http://creativecommons.org/ns#"
   xmlns:rdf="http://www.w3.org/1999/02/22-rdf-syntax-ns#"
   xmlns:svg="http://www.w3.org/2000/svg"
   xmlns="http://www.w3.org/2000/svg"
   xmlns:sodipodi="http://sodipodi.sourceforge.net/DTD/sodipodi-0.dtd"
   xmlns:inkscape="http://www.inkscape.org/namespaces/inkscape"
   width="210mm"
   height="297mm"
   viewBox="0 0 744.09448819 1052.3622047"
   id="svg2"
   version="1.1"
   inkscape:version="0.91pre3 r13670"
   sodipodi:docname="logo.svg">
  <defs
     id="defs4" />
  <sodipodi:namedview
     id="base"
     pagecolor="#ffffff"
     bordercolor="#666666"
     borderopacity="1.0"
     inkscape:pageopacity="0.0"
     inkscape:pageshadow="2"
     inkscape:zoom="0.98994949"
     inkscape:cx="124.09334"
     inkscape:cy="378.27875"
     inkscape:document-units="px"
     inkscape:current-layer="layer1"
     showgrid="false"
     inkscape:window-width="1280"
     inkscape:window-height="737"
     inkscape:window-x="-32000"
     inkscape:window-y="-32000"
     inkscape:window-maximized="0" />
  <metadata
     id="metadata7">
    <rdf:RDF>
      <cc:Work
         rdf:about="">
        <dc:format>image/svg+xml</dc:format>
        <dc:type
           rdf:resource="http://purl.org/dc/dcmitype/StillImage" />
        <dc:title />
      </cc:Work>
    </rdf:RDF>
  </metadata>
  <g
     inkscape:label="Ebene 1"
     inkscape:groupmode="layer"
     id="layer1">
    <rect
       style="fill:#ffffff"
       id="rect3483"
       width="456.58896"
       height="317.1879"
       x="8.0812206"
       y="476.57526" />
    <g
       id="g3411"
       inkscape:export-xdpi="90"
       inkscape:export-ydpi="90">
      <g
         id="g3685">
        <g
           id="g3472"
           inkscape:export-xdpi="90"
           inkscape:export-ydpi="90">
          <path
             inkscape:connector-curvature="0"
             d="m 80.081571,563.35769 c -3.197935,-0.13479 -6.401909,0.21922 -9.552407,0.74862 -2.862637,0.50143 -5.611663,1.44289 -8.480077,1.93055 -2.108013,0.33079 -4.16174,0.88162 -6.287731,1.13593 -1.753363,0.45325 -3.423,1.14003 -5.165476,1.62249 -2.263931,0.42076 -4.481528,1.05703 -6.686351,1.7165 -2.282833,0.70768 -4.708912,1.03245 -6.959414,1.82818 -1.888531,0.49441 -3.646238,1.31886 -5.443874,2.05819 -9.509146,5.60963 26.888748,-15.52961 -3.288124,1.92886 -2.546138,1.47304 10.22421,-5.82233 7.648642,-4.40138 -3.173427,1.75079 -6.294971,3.59402 -9.442456,5.39104 -1.966988,1.11002 -4.011132,2.05464 -6.051704,3.01879 -1.843152,1.12514 -3.929993,1.71821 -5.968533,2.37849 0,0 7.863489,-6.11085 7.863489,-6.11085 l 0,0 c 2.017247,-0.69791 4.035502,-1.37622 5.883793,-2.47087 2.025382,-0.99366 4.079799,-1.9297 6.03783,-3.05529 -18.220968,10.58882 -0.953099,0.5466 1.787086,-1.0116 2.573935,-1.46365 -10.241414,5.94914 -7.682598,4.45922 3.602188,-2.09746 7.236586,-4.44133 11.032736,-6.29775 1.795478,-0.77046 3.622374,-1.44877 5.505154,-1.97736 2.318875,-0.59859 4.648018,-1.15437 6.951791,-1.81356 2.215292,-0.65472 4.466893,-1.16725 6.705616,-1.7347 1.731277,-0.56121 3.448586,-1.20096 5.253139,-1.49251 2.095248,-0.31765 4.142907,-0.86399 6.241991,-1.15913 2.827357,-0.55429 5.574753,-1.45704 8.432185,-1.86142 3.233401,-0.46226 6.487793,-0.76071 9.757799,-0.70999 0,0 -8.092506,5.87955 -8.092506,5.87955 z"
             id="path3362"
             style="fill:#00ff00" />
          <path
             inkscape:connector-curvature="0"
             d="m 78.013827,560.13879 c -2.545333,-0.39332 -5.122855,-0.78227 -7.579031,-1.57523 -2.232376,-0.70471 -4.423339,-1.53623 -6.628656,-2.32362 -2.193883,-0.54264 -4.174136,-1.57769 -6.168314,-2.59876 -1.826517,-1.07717 -3.786495,-1.86841 -5.620142,-2.93534 -1.720919,-0.91514 -3.651323,-1.27293 -5.397875,-2.13124 -1.569106,-0.78706 -3.288306,-1.10659 -4.936993,-1.6786 -2.085407,-0.47538 -3.753471,-1.83421 -5.360437,-3.16971 -1.19909,-0.90136 -2.347215,-1.8652 -3.523568,-2.79751 0,0 8.428856,-5.29954 8.428856,-5.29954 l 0,0 c 1.176656,0.93327 2.311467,1.91612 3.510413,2.82026 1.582348,1.25774 3.212719,2.38639 5.217535,2.84635 1.668192,0.57296 3.418109,0.91006 4.978392,1.77092 1.799797,0.77206 3.742376,1.19717 5.440848,2.20184 1.840634,1.01246 3.753943,1.87415 5.578837,2.91501 1.96058,1.01462 3.971349,1.88174 6.099616,2.4918 2.182746,0.80236 4.370001,1.60375 6.593537,2.28431 2.469437,0.70094 5.007645,1.12875 7.554366,1.43473 0,0 -8.187384,5.74433 -8.187384,5.74433 z"
             id="path3364"
             style="fill:#00ff00" />
          <path
             inkscape:connector-curvature="0"
             d="m 85.042493,560.4021 c -2.229585,-2.08202 -3.787394,-4.62786 -5.047356,-7.37469 -1.250086,-2.19093 -1.747795,-4.63851 -2.455889,-7.01995 -0.570146,-2.03876 -1.189197,-4.06785 -1.634526,-6.13966 -0.621293,-2.04729 -1.08381,-4.12151 -1.340399,-6.24473 -0.09259,-2.02941 -0.376034,-4.03656 -0.888475,-6.00252 -0.624953,-2.03335 -0.990547,-4.12901 -1.447393,-6.20337 -0.508867,-2.27223 -0.718601,-4.59075 -0.8382,-6.91115 -0.01207,-0.35503 -0.02414,-0.71005 -0.0362,-1.06507 0,0 8.858825,-4.54666 8.858825,-4.54666 l 0,0 c 0.0087,0.35061 0.01738,0.70123 0.02607,1.05185 0.09111,2.26822 0.253241,4.53955 0.747363,6.76153 0.473248,2.05566 0.832929,4.13382 1.439536,6.15668 0.56826,1.99803 0.893297,4.0599 0.963341,6.13642 0.220125,2.09931 0.640103,4.1555 1.289871,6.16717 0.412395,2.0534 1.051115,4.04475 1.606084,6.06116 0.69141,2.34203 1.082215,4.77876 2.332418,6.93142 1.192662,2.65439 2.68698,5.12207 4.938782,7.02427 0,0 -8.51385,5.2173 -8.51385,5.2173 z"
             id="path3366"
             style="fill:#00ff00" />
          <path
             inkscape:connector-curvature="0"
             d="m 97.991013,551.69455 c 2.806217,-2.62094 5.562607,-5.27908 8.611937,-7.6218 2.92979,-1.96974 5.91112,-3.8593 8.73174,-5.98585 2.1786,-1.75353 4.18012,-3.70926 5.97416,-5.85203 1.54095,-2.07585 3.52806,-3.72404 5.47391,-5.39737 3.68292,-3.32212 8.00775,-5.16073 12.35807,-7.77361 1.60176,-0.96204 -25.33908,14.59703 1.68979,-1.00195 0.82675,-0.25316 1.51644,-0.75784 2.28219,-1.14204 0,0 -7.79234,6.25483 -7.79234,6.25483 l 0,0 c -0.74132,0.40149 -1.49541,0.77421 -2.24775,1.15467 2.56773,-1.49011 10.26442,-5.97158 7.70318,-4.47034 -18.78969,11.01332 -6.95671,3.98477 -1.8564,1.04919 0.3399,-0.19564 -0.66827,0.41198 -0.98638,0.64136 -0.67594,0.48739 -1.28134,1.068 -1.96293,1.5482 -1.87859,1.70735 -3.99287,3.196 -5.52981,5.2494 -1.78027,2.211 -3.74315,4.24595 -5.92599,6.0693 -2.76724,2.22779 -5.78623,4.11913 -8.77823,6.02793 -3.07212,2.21499 -5.88653,4.75449 -8.46804,7.52714 0,0 -9.277107,3.72297 -9.277107,3.72297 z"
             id="path3368"
             style="fill:#00ff00" />
          <path
             inkscape:connector-curvature="0"
             d="m 89.487868,545.80109 c 0.185951,-2.91599 0.905357,-5.75156 1.433923,-8.61493 0.405052,-2.20078 0.528831,-4.43511 0.590363,-6.66738 0.0053,-0.33887 0.01055,-0.67775 0.01582,-1.01662 0,0 8.882836,-4.51062 8.882836,-4.51062 l 0,0 c -0.004,0.3425 -0.008,0.685 -0.0124,1.0275 -0.0518,2.28433 -0.15763,4.57243 -0.560745,6.82655 -0.512668,2.80059 -1.287492,5.55931 -1.437187,8.41429 0,0 -8.912638,4.54121 -8.912638,4.54121 z"
             id="path3370"
             style="fill:#00ff00" />
          <path
             inkscape:connector-curvature="0"
             d="m 59.710032,709.7797 c -1.744104,-3.52387 -3.563337,-7.01902 -5.498816,-10.44304 -1.829045,-2.88823 -2.921662,-6.07628 -3.832185,-9.34305 -0.871232,-2.93343 -1.143498,-5.99115 -1.347663,-9.03046 -0.103553,-2.35333 -0.23072,-4.71449 -0.04748,-7.0654 0.384575,-2.54467 0.581915,-5.11003 1.052289,-7.64087 0.263877,-2.29879 1.323365,-4.35856 2.07057,-6.51493 0.664775,-1.79659 1.349765,-3.58561 2.00111,-5.38771 0.733975,-2.51237 1.809653,-4.87592 2.924845,-7.23518 1.245253,-2.91088 2.858409,-5.63118 4.481948,-8.34085 1.651613,-2.56237 3.524382,-4.97398 5.297823,-7.45258 2.334366,-3.32184 4.997998,-6.39515 7.490768,-9.59803 1.963565,-2.70602 3.790852,-5.51897 5.501651,-8.39188 1.349263,-2.4963 2.451226,-5.12588 3.419826,-7.79113 0.632499,-2.3062 1.445326,-4.55623 2.141056,-6.8419 0.841395,-2.57237 1.784006,-5.07715 2.315748,-7.7368 0.284762,-2.36796 0.920459,-4.66928 1.299963,-7.02026 0.276556,-1.93361 0.304847,-3.88971 0.328178,-5.83922 0.01626,-2.05239 -0.004,-4.10482 0.01253,-6.15719 -0.03477,-2.62088 0.113806,-5.24385 -0.07159,-7.85983 -0.633825,-2.85428 -1.136455,-5.73277 -1.680629,-8.60428 -0.674818,-2.90806 -0.969121,-5.87704 -1.128335,-8.85181 -0.04818,-0.52299 -0.09636,-1.04597 -0.144541,-1.56896 0,0 13.135151,-6.87082 13.135151,-6.87082 l 0,0 c 0.06654,0.54446 0.133087,1.08891 0.19963,1.63336 0.143444,2.90649 0.372371,5.81391 1.038161,8.65572 0.60667,2.91033 0.95629,5.87404 1.76704,8.74408 0.26594,2.63897 0.13082,5.29623 0.17931,7.94621 0.0231,2.0527 0.0185,4.10561 0.0186,6.15842 -0.0107,2.00948 -0.0181,4.02409 -0.23855,6.02401 -0.32152,2.4084 -1.05666,4.71562 -1.38035,7.11943 -0.45757,2.70626 -1.139848,5.29238 -2.188104,7.83241 -0.621913,2.33908 -1.551558,4.56742 -2.117268,6.92366 -0.915376,2.76528 -2.122745,5.43182 -3.352097,8.06947 -1.663297,2.97922 -3.612549,5.79112 -5.512232,8.62189 -2.480846,3.16995 -5.097044,6.24513 -7.44017,9.51216 -1.765868,2.44889 -3.512906,4.91025 -5.30419,7.33998 -1.668032,2.63985 -3.310782,5.30388 -4.57083,8.16885 -0.993867,2.33945 -2.274495,4.55557 -2.883576,7.04877 -0.556113,1.83698 -1.262247,3.63139 -2.032991,5.3833 -0.633404,2.17214 -1.811438,4.1319 -2.170216,6.37682 -0.523848,2.48828 -0.757846,4.99635 -1.101619,7.51488 -0.310995,2.27308 -0.103874,4.5833 -0.09956,6.87165 0.129583,2.94812 0.346931,5.9097 1.167762,8.76011 0.889736,3.16005 1.813984,6.27205 3.583918,9.08363 1.889703,3.44333 3.642279,6.95804 5.66856,10.3264 0,0 -12.953419,7.47097 -12.953419,7.47097 z"
             id="path3358"
             style="fill:#008000;fill-opacity:1;fill-rule:nonzero;stroke:none;stroke-width:1px;stroke-linecap:butt;stroke-linejoin:miter;stroke-opacity:1" />
          <path
             inkscape:connector-curvature="0"
             d="m 103.61878,553.82428 c 0.79272,2.68519 1.93356,5.2483 3.05279,7.80993 0.9321,2.07964 1.80585,4.17985 2.63263,6.3039 0.62994,1.98223 1.93297,3.58391 2.92823,5.37234 1.17643,1.96921 1.85585,4.19023 2.48535,6.3839 0.78132,2.10647 1.32374,4.26719 1.6224,6.49111 0.19314,1.70146 0.21644,3.41512 0.23591,5.12538 0,0 -8.87393,4.53173 -8.87393,4.53173 l 0,0 c -0.0115,-1.67607 -0.0221,-3.35492 -0.1795,-5.02511 -0.25291,-2.18446 -0.74584,-4.31132 -1.53488,-6.36958 -0.58356,-2.12634 -1.2572,-4.26947 -2.39714,-6.16893 -1.00801,-1.83213 -2.33501,-3.47448 -2.98295,-5.49813 -0.810774,-2.11669 -1.680695,-4.20435 -2.59057,-6.27962 -1.128523,-2.60271 -2.186603,-5.23631 -3.162679,-7.89953 0,0 8.764339,-4.77739 8.764339,-4.77739 z"
             id="path3372"
             style="fill:#00ff00" />
          <path
             inkscape:connector-curvature="0"
             d="m 98.962779,563.15208 c -3.084823,3.12463 -6.379868,6.02772 -9.620376,8.9874 -2.790025,2.55635 -5.647614,5.01565 -7.836354,8.11939 -1.918683,3.11174 -3.69909,6.31379 -5.427525,9.53586 -1.058706,2.16667 -2.364267,4.15862 -3.884255,6.0235 0,0 -9.129415,3.87218 -9.129415,3.87218 l 0,0 c 1.568831,-1.79485 2.960767,-3.6815 3.995338,-5.8434 1.725013,-3.26227 3.593719,-6.45166 5.439271,-9.64534 2.125615,-3.40248 4.827059,-5.6914 7.784704,-8.35894 3.194921,-2.9087 6.477129,-5.73261 9.453416,-8.86945 0,0 9.225196,-3.8212 9.225196,-3.8212 z"
             id="path3374"
             style="fill:#00ff00" />
          <path
             inkscape:connector-curvature="0"
             d="m 107.8068,550.40707 c 4.17597,0.0682 8.35281,0.073 12.52925,0.0781 5.01859,0.26757 10.03765,0.48506 15.02244,1.13974 2.70349,0.12589 5.02198,1.17364 7.34123,2.43672 1.83618,0.82147 3.51362,1.93866 5.08163,3.19108 1.1113,0.96651 2.17574,1.98459 3.24294,2.99895 0,0 -8.41824,5.19279 -8.41824,5.19279 l 0,0 c -1.05739,-0.98892 -2.1079,-1.98848 -3.24549,-2.8866 -1.56023,-1.18134 -3.22925,-2.20764 -4.99623,-3.0533 -2.20608,-1.20005 -4.50357,-2.01083 -7.03646,-2.20641 -4.92886,-0.66948 -9.90173,-0.89586 -14.86926,-1.08967 -4.24813,0.005 -8.49663,0.011 -12.744313,0.0781 0,0 8.092503,-5.87955 8.092503,-5.87955 z"
             id="path3376"
             style="fill:#00ff00" />
          <path
             inkscape:connector-curvature="0"
             d="m 92.041143,542.56045 c 2.463711,-1.82128 4.794996,-3.86047 6.838924,-6.14466 1.560283,-1.862 2.937773,-3.85864 4.527013,-5.6979 1.33709,-1.4488 2.56855,-2.9805 3.65374,-4.62599 0.9019,-1.51834 1.53007,-3.16156 2.15683,-4.8045 0,0 9.03279,-4.18421 9.03279,-4.18421 l 0,0 c -0.67454,1.66643 -1.22383,3.37713 -2.08109,4.9674 -1.01062,1.73384 -2.24359,3.29404 -3.56408,4.80229 -1.75238,1.72187 -3.04574,3.81087 -4.62714,5.68067 -1.90353,2.41867 -4.32377,4.35661 -6.64031,6.36938 0,0 -9.296677,3.63752 -9.296677,3.63752 z"
             id="path3378"
             style="fill:#00ff00" />
          <path
             inkscape:connector-curvature="0"
             d="m 102.61089,546.83338 c 3.38661,-1.47799 10.38112,-5.66945 -3.967603,2.50423 0,0 9.259623,-3.5912 9.259623,-3.5912 l 0,0 c -4.32097,2.51384 -8.544721,5.23402 -13.094229,7.328 0,0 7.802209,-6.24103 7.802209,-6.24103 z"
             id="path3380"
             style="fill:#00ff00" />
          <path
             inkscape:connector-curvature="0"
             d="m 96.112851,554.03292 c -1.257135,2.58399 -2.357139,5.2372 -3.929824,7.65 -3.502579,4.53509 -9.272948,6.82493 -14.041772,9.57093 3.138998,-1.68348 -6.130528,3.37142 -3.030347,1.57745 2.494913,-1.44373 9.991772,-5.75375 7.503433,-4.29872 -3.160232,1.84791 -6.348128,3.6481 -9.519171,5.4774 -2.495854,1.43979 4.995731,-2.8726 7.493597,-4.3089 -26.89364,15.39954 -0.8409,0.47584 -1.902593,1.10303 -6.819953,4.02882 -7.771942,4.61652 -13.025291,7.00045 -2.204207,0.72835 -4.130085,2.04033 -6.250163,2.94097 -2.254844,1.16023 -4.538638,2.19171 -6.866283,3.20422 0.840372,-0.41573 -3.128469,1.62377 -2.368635,1.17669 13.582716,-7.99193 8.651945,-4.92025 5.683849,-3.19207 -3.132503,1.8239 -6.272188,3.63544 -9.408283,5.45317 -1.221231,0.51722 -0.648,0.21934 -1.725998,0.88139 0,0 7.760057,-6.26848 7.760057,-6.26848 l 0,0 c 1.120594,-0.57253 0.551268,-0.27925 1.707765,-0.88028 -2.538044,1.47358 -5.064742,2.96688 -7.614131,4.42074 -0.6222,0.35483 1.207907,-0.77109 1.828949,-1.12794 3.984337,-2.2894 7.754098,-4.74997 11.917321,-6.61273 2.348083,-0.99198 4.575939,-2.19555 6.891161,-3.25664 2.050527,-1.01732 4.077123,-2.08117 6.220186,-2.90156 0.358729,-0.15634 2.032015,-0.88179 2.396411,-1.05567 0.37997,-0.18131 1.486458,-0.79003 1.124891,-0.57435 -2.502491,1.49281 -10.058561,5.88894 -7.54967,4.40692 3.126645,-1.84694 6.289837,-3.63201 9.402951,-5.50167 2.478493,-1.48852 -4.999289,2.90544 -7.498934,4.35816 26.419459,-15.30008 1.350772,-0.78425 2.025625,-1.16837 4.192417,-2.38629 8.273157,-4.88766 12.547528,-7.09583 -15.111262,8.81295 -5.42524,3.79936 -2.795649,0.62353 1.71508,-2.2616 2.80522,-4.88839 3.920091,-7.48339 0,0 9.102929,-4.11845 9.102929,-4.11845 z"
             id="path3382"
             style="fill:#00ff00" />
          <path
             inkscape:connector-curvature="0"
             d="m 104.96873,552.78872 c 3.46921,1.43269 6.91592,2.99605 10.28857,4.65669 2.92316,1.4267 5.86299,2.82827 8.7389,4.34888 2.16416,0.923 4.2109,2.07206 6.28473,3.18603 2.11797,1.37521 4.23822,2.75178 6.33243,4.16541 1.53473,0.92124 0.76222,0.49924 2.31433,1.27181 0,0 -8.29834,5.44228 -8.29834,5.44228 l 0,0 c -1.58443,-0.85454 -0.79665,-0.39877 -2.36142,-1.37064 -2.08867,-1.37513 -4.17694,-2.75786 -6.30938,-4.06208 -2.07752,-1.08972 -4.12069,-2.23603 -6.26156,-3.19735 -2.85778,-1.49945 -5.73256,-2.96962 -8.63801,-4.37431 -3.37673,-1.60096 -6.76439,-3.29262 -10.325864,-4.42653 0,0 8.235614,-5.64019 8.235614,-5.64019 z"
             id="path3384"
             style="fill:#00ff00" />
          <path
             inkscape:connector-curvature="0"
             d="m 26.056112,569.9196 c 0.02936,-2.56504 0.01939,-5.13037 0.01572,-7.69554 -0.0037,-2.18545 -0.0055,-4.37091 -0.0065,-6.55638 -6.01e-4,-1.68633 -6.23e-4,-3.37266 -6.56e-4,-5.05899 0,0 4.43918,-2.26187 4.43918,-2.26187 l 0,0 c -3.2e-5,1.68655 -5.5e-5,3.3731 -6.55e-4,5.05966 -9.69e-4,2.18766 -0.0028,4.37533 -0.0065,6.56299 -0.0037,2.55983 -0.01373,5.11982 0.01572,7.67952 0,0 -4.456319,2.27061 -4.456319,2.27061 z"
             id="path3386"
             style="fill:#44aa00" />
          <path
             inkscape:connector-curvature="0"
             d="m 29.603757,565.02188 c 0.453837,2.50478 0.464007,5.06744 0.884056,7.57254 0,0 -4.392717,2.33189 -4.392717,2.33189 l 0,0 c -0.428096,-2.50133 -0.399521,-5.06611 -0.908952,-7.56086 0,0 4.417613,-2.34357 4.417613,-2.34357 z"
             id="path3388"
             style="fill:#5aa02c" />
          <path
             inkscape:connector-curvature="0"
             d="m 30.821355,578.22517 c 1.535419,3.29182 2.810125,6.7015 4.03004,10.1209 1.048989,2.36231 1.931768,4.79397 3.010247,7.14283 0.836423,1.96523 1.656244,3.9399 2.192041,6.01083 0.06569,0.33842 0.13137,0.67684 0.197056,1.01526 0,0 -4.395433,2.34405 -4.395433,2.34405 l 0,0 c -0.06059,-0.32947 -0.121176,-0.65894 -0.181764,-0.9884 -0.510976,-2.04814 -1.326875,-3.99198 -2.142912,-5.93442 -1.088317,-2.36341 -1.953858,-4.81935 -2.988097,-7.20666 -1.198633,-3.41192 -2.457725,-6.82117 -4.070355,-10.06176 0,0 4.349177,-2.44263 4.349177,-2.44263 z"
             id="path3390"
             style="fill:#5aa02c" />
          <path
             inkscape:connector-curvature="0"
             d="m 37.16779,565.87899 c 0.03615,-2.99451 0.02881,-5.98947 0.02375,-8.98416 0,0 4.408829,-2.24641 4.408829,-2.24641 l 0,0 c -0.005,2.98663 -0.01255,5.97352 0.02374,8.95996 0,0 -4.456319,2.27061 -4.456319,2.27061 z"
             id="path3392"
             style="fill:#5aa02c" />
          <path
             inkscape:connector-curvature="0"
             d="m 45.867538,572.05898 c 0.8798,2.75141 1.288685,5.61293 1.555688,8.4795 0.208413,2.57349 0.246042,5.15603 0.262773,7.73652 0,0 -4.431439,2.26043 -4.431439,2.26043 l 0,0 c -0.0063,-2.57141 -0.02475,-5.14525 -0.218651,-7.71077 -0.254513,-2.82557 -0.621129,-5.65798 -1.547002,-8.35417 0,0 4.378631,-2.41151 4.378631,-2.41151 z"
             id="path3394"
             style="fill:#5aa02c" />
          <path
             inkscape:connector-curvature="0"
             d="m 50.724793,540.49028 c 2.210638,-3.95005 5.246929,-7.32504 7.860734,-10.99496 0.429707,-0.63407 0.859414,-1.26815 1.289121,-1.90222 0,0 4.484971,-1.95848 4.484971,-1.95848 l 0,0 c -0.432002,0.63854 -0.864005,1.27707 -1.296007,1.91561 -2.563766,3.66408 -5.656488,6.96828 -7.765887,10.93924 0,0 -4.572932,2.00081 -4.572932,2.00081 z"
             id="path3396"
             style="fill:#5aa02c" />
          <path
             inkscape:connector-curvature="0"
             d="m 51.977713,546.97532 c -3.247667,2.47595 -6.777835,4.50787 -10.392475,6.40673 -1.179039,0.61938 -2.458641,1.02695 -3.66407,1.59326 -1.905816,0.81742 -3.774305,1.69518 -5.642457,2.59356 0,0 3.882767,-3.09591 3.882767,-3.09591 l 0,0 c 1.853524,-0.89031 3.729811,-1.71922 5.607464,-2.55693 1.122165,-0.51339 7.153633,-3.48641 1.200644,-0.1177 -0.385108,0.21793 1.3529,-0.78958 3.107366,-2.04169 0.430379,-0.30715 0.845964,-0.63452 1.268947,-0.95178 0,0 4.631814,-1.82954 4.631814,-1.82954 z"
             id="path3398"
             style="fill:#5aa02c" />
          <path
             inkscape:connector-curvature="0"
             d="m 61.618953,541.5625 c 1.007049,-3.42238 2.729092,-6.51714 4.593748,-9.53044 0.2906,-0.49484 0.581201,-0.98967 0.871801,-1.48451 0,0 4.507791,-2.00405 4.507791,-2.00405 l 0,0 c -0.290922,0.49982 -0.581844,0.99963 -0.872766,1.49945 -1.851328,2.96724 -3.658558,5.98334 -4.575932,9.39461 0,0 -4.524642,2.12494 -4.524642,2.12494 z"
             id="path3400"
             style="fill:#5aa02c" />
          <path
             inkscape:connector-curvature="0"
             d="m 62.608954,555.23476 c -6.704438,2.21284 -13.310066,4.71818 -19.868072,7.3309 -4.21987,1.76234 -2.179299,0.91748 -6.120689,2.53705 0,0 3.803977,-2.99641 3.803977,-2.99641 l 0,0 c 3.909626,-1.59669 1.882277,-0.76425 6.081302,-2.49912 6.623993,-2.61374 13.287323,-5.13231 20.030436,-7.42326 0,0 -3.926954,3.05084 -3.926954,3.05084 z"
             id="path3402"
             style="fill:#5aa02c" />
          <path
             inkscape:connector-curvature="0"
             d="m 89.856249,515.5163 c 4.331101,-0.0127 8.668026,0.1601 12.992791,-0.10713 0,0 -3.94934,2.9027 -3.94934,2.9027 l 0,0 c -4.355069,0.2108 -8.717493,0.0545 -13.076404,0.13454 0,0 4.032953,-2.93011 4.032953,-2.93011 z"
             id="path3404"
             style="fill:#5aa02c" />
          <path
             inkscape:connector-curvature="0"
             d="m 64.956926,521.63554 c -4.017163,1.16945 -7.977479,2.5128 -11.964873,3.77594 -0.728022,0.25334 -1.456044,0.50669 -2.184066,0.76003 0,0 3.861437,-3.00618 3.861437,-3.00618 l 0,0 c 0.727647,-0.24825 1.455295,-0.4965 2.182942,-0.74475 4.025162,-1.29074 8.025183,-2.66357 12.10117,-3.79083 0,0 -3.99661,3.00579 -3.99661,3.00579 z"
             id="path3406"
             style="fill:#5aa02c" />
          <path
             inkscape:connector-curvature="0"
             d="m 89.856249,523.59752 c 3.016792,0.0267 6.033716,0.0213 9.050582,0.0165 0,0 -3.987394,2.89701 -3.987394,2.89701 l 0,0 c -3.032053,-0.005 -6.064161,-0.01 -9.096141,0.0166 0,0 4.032953,-2.93011 4.032953,-2.93011 z"
             id="path3408"
             style="fill:#5aa02c" />
          <path
             inkscape:connector-curvature="0"
             d="m 72.958859,537.07305 c -5.212513,2.0564 -10.494071,3.92304 -15.748096,5.86748 -3.926008,1.30654 -2.028434,0.64284 -5.696035,1.98163 0,0 3.828984,-2.99012 3.828984,-2.99012 l 0,0 c 3.655691,-1.30768 1.765282,-0.64964 5.673396,-1.96788 5.303516,-1.94749 10.625328,-3.8408 15.855271,-5.98402 0,0 -3.91352,3.09291 -3.91352,3.09291 z"
             id="path3410"
             style="fill:#5aa02c" />
          <path
             inkscape:connector-curvature="0"
             d="m 110.72295,533.61717 c 0.78727,1.24071 1.7607,2.34558 2.6667,3.49869 0,0 -4.24871,2.53443 -4.24871,2.53443 l 0,0 c -0.91568,-1.16448 -1.88735,-2.28583 -2.72459,-3.50958 0,0 4.3066,-2.52354 4.3066,-2.52354 z"
             id="path3412"
             style="fill:#5aa02c" />
          <path
             inkscape:connector-curvature="0"
             d="m 134.96661,531.59687 c 1.69155,3.09814 3.20463,6.2849 4.99956,9.3268 0,0 -4.2429,2.45337 -4.2429,2.45337 l 0,0 c -1.77129,-3.04178 -3.27614,-6.22532 -5.06326,-9.25664 0,0 4.3066,-2.52353 4.3066,-2.52353 z"
             id="path3414"
             style="fill:#5aa02c" />
          <path
             inkscape:connector-curvature="0"
             d="m 141.62921,562.02791 c -0.0231,1.71697 -0.0195,3.43416 -0.0189,5.15124 0,0 -4.41844,2.25131 -4.41844,2.25131 l 0,0 c 5.3e-4,-1.71065 0.004,-3.42141 -0.0189,-5.13195 0,0 4.45632,-2.2706 4.45632,-2.2706 z"
             id="path3416"
             style="fill:#5aa02c" />
          <path
             inkscape:connector-curvature="0"
             d="m 133.02197,560.06677 c -2.23482,2.0975 -4.11781,4.49975 -5.64949,7.14714 -0.16288,0.38477 -0.32577,0.76954 -0.48865,1.15432 0,0 -4.50641,2.0807 -4.50641,2.0807 l 0,0 c 0.15946,-0.40657 0.31891,-0.81315 0.47836,-1.21973 1.48929,-2.68241 3.33604,-5.12142 5.55359,-7.25183 0,0 4.6126,-1.9106 4.6126,-1.9106 z"
             id="path3418"
             style="fill:#5aa02c" />
          <path
             inkscape:connector-curvature="0"
             d="m 131.42499,573.17668 c -0.34659,2.35328 -0.97705,4.64997 -1.61498,6.93735 0,0 -4.46734,2.12444 -4.46734,2.12444 l 0,0 c 0.63755,-2.26066 1.29606,-4.52936 1.58973,-6.86538 0,0 4.49259,-2.19641 4.49259,-2.19641 z"
             id="path3420"
             style="fill:#5aa02c" />
          <path
             inkscape:connector-curvature="0"
             d="m 125.0534,568.12145 c -1.90559,2.4795 -3.50527,5.17887 -4.87409,7.9863 -1.08576,2.26738 -1.53437,4.71079 -1.73807,7.19343 -0.0687,1.03 -0.0763,2.06231 -0.0867,3.09404 0,0 -4.44031,2.25748 -4.44031,2.25748 l 0,0 c 0.008,-1.04248 0.0132,-2.08547 0.075,-3.12659 0.18774,-2.53797 0.60972,-5.04373 1.69026,-7.37415 1.34237,-2.83021 2.94322,-5.52613 4.77765,-8.06683 0,0 4.59623,-1.96368 4.59623,-1.96368 z"
             id="path3422"
             style="fill:#5aa02c" />
          <path
             inkscape:connector-curvature="0"
             d="m 110.91126,588.3245 c -1.83775,2.31147 -3.27655,4.85992 -4.60671,7.48346 -1.02045,2.68219 -2.30776,5.17806 -3.84824,7.59776 -0.74236,1.19321 -1.83287,2.10405 -2.568229,3.30055 -0.07881,0.12823 -0.0366,0.49064 -0.16886,0.41879 -0.13685,-0.0743 0.06626,-0.30436 0.09939,-0.45653 -1.180646,0.62405 -2.361291,1.2481 -3.541936,1.87216 0,0 4.643165,-1.81541 4.643165,-1.81541 l 0,0 c -1.714109,0.97778 -3.337552,2.13521 -5.142326,2.93334 -0.995441,0.44022 -0.460217,-0.94242 -0.44832,-0.96553 0.652311,-1.26683 1.848485,-2.10681 2.605691,-3.30009 1.5558,-2.39698 2.885375,-4.85564 3.858805,-7.54761 1.33675,-2.62711 2.72754,-5.20354 4.52135,-7.5572 0,0 4.59622,-1.96369 4.59622,-1.96369 z"
             id="path3424"
             style="fill:#5aa02c" />
          <path
             inkscape:connector-curvature="0"
             d="m 103.82855,581.3557 c -2.25336,3.08128 -4.911396,5.83841 -7.422405,8.70749 0,0 -4.543479,1.91711 -4.543479,1.91711 l 0,0 c 2.496556,-2.84547 5.146368,-5.57265 7.392948,-8.62379 0,0 4.572936,-2.00081 4.572936,-2.00081 z"
             id="path3426"
             style="fill:#5aa02c" />
          <path
             inkscape:connector-curvature="0"
             d="m 77.483909,590.02233 c 2.252583,2.42094 4.081446,5.18854 6.290965,7.64242 1.123762,1.29939 0.575904,0.71735 1.624535,1.76385 0,0 -4.249917,2.59658 -4.249917,2.59658 l 0,0 c -1.033377,-1.09142 -0.493692,-0.49498 -1.606706,-1.80042 -2.178993,-2.47125 -3.995392,-5.24204 -6.315802,-7.59379 0,0 4.256925,-2.60864 4.256925,-2.60864 z"
             id="path3428"
             style="fill:#5aa02c" />
          <path
             inkscape:connector-curvature="0"
             d="m 80.214495,578.25213 c 0.806082,3.90406 2.616221,7.49753 4.314699,11.07242 0.951319,2.41321 1.987547,4.68458 4.502787,5.67232 0.294073,0.0671 0.588146,0.13422 0.882219,0.20133 0,0 -4.107491,2.8287 -4.107491,2.8287 l 0,0 c -0.308287,-0.0882 -0.616574,-0.17645 -0.92486,-0.26467 -2.538388,-1.1773 -3.669699,-3.47393 -4.626302,-6.01733 -1.687306,-3.60485 -3.506838,-7.20777 -4.423224,-11.10407 0,0 4.382172,-2.3887 4.382172,-2.3887 z"
             id="path3430"
             style="fill:#5aa02c" />
          <path
             inkscape:connector-curvature="0"
             d="m 69.982867,589.16192 c -2.759135,-0.0204 -5.518388,-0.0164 -8.277577,-0.0134 -1.678141,-0.0516 -3.269598,-0.48568 -4.868523,-0.94781 0,0 4.101979,-2.80957 4.101979,-2.80957 l 0,0 c 1.566226,0.44044 3.136091,0.82321 4.775943,0.84438 2.771474,0.003 5.54301,0.007 8.314431,-0.0134 0,0 -4.046253,2.93977 -4.046253,2.93977 z"
             id="path3432"
             style="fill:#5aa02c" />
          <path
             inkscape:connector-curvature="0"
             d="m 73.88559,583.95894 c -2.675562,-0.54567 -5.334595,-1.17132 -7.979908,-1.84764 0,0 4.029233,-2.77764 4.029233,-2.77764 l 0,0 c 2.657451,0.66417 5.325444,1.3096 8.031039,1.74828 0,0 -4.080364,2.877 -4.080364,2.877 z"
             id="path3434"
             style="fill:#5aa02c" />
          <path
             inkscape:connector-curvature="0"
             d="m 58.279514,577.02715 c -0.2084,-1.7381 -0.67026,-3.43357 -1.043527,-5.14121 0,0 4.367366,-2.34434 4.367366,-2.34434 l 0,0 c 0.370135,1.71277 0.834208,3.40813 1.093775,5.14198 0,0 -4.417614,2.34357 -4.417614,2.34357 z"
             id="path3436"
             style="fill:#5aa02c" />
          <path
             inkscape:connector-curvature="0"
             d="m 70.605516,571.90281 c 0.382481,-2.19806 0.529293,-4.4184 0.542152,-6.64542 0,0 4.389035,-2.23551 4.389035,-2.23551 l 0,0 c 0.0061,2.23746 -0.137306,4.46535 -0.43859,6.68452 0,0 -4.492597,2.19641 -4.492597,2.19641 z"
             id="path3438"
             style="fill:#5aa02c" />
          <path
             inkscape:connector-curvature="0"
             d="m 66.465876,550.60401 c 0.06665,-2.41849 0.991582,-4.67176 1.805404,-6.91284 0,0 4.460182,-2.07864 4.460182,-2.07864 l 0,0 c -0.805287,2.17797 -1.766945,4.36497 -1.816591,6.7246 0,0 -4.448995,2.26688 -4.448995,2.26688 z"
             id="path3440"
             style="fill:#5aa02c" />
          <path
             inkscape:connector-curvature="0"
             d="m 74.023477,523.50201 c -3.864934,0.2754 -7.701114,0.78245 -11.5415,1.28316 -0.538384,0.077 -1.076768,0.15406 -1.615152,0.23109 0,0 3.957007,-2.95833 3.957007,-2.95833 l 0,0 c 0.531067,-0.0699 1.062133,-0.13987 1.5932,-0.20981 3.877053,-0.49736 7.751768,-1.00966 11.652698,-1.28589 0,0 -4.046253,2.93978 -4.046253,2.93978 z"
             id="path3442"
             style="fill:#5aa02c" />
          <path
             inkscape:connector-curvature="0"
             d="m 84.570473,518.54193 c 6.837486,-0.54583 13.620909,-1.57178 20.390057,-2.66046 8.54514,-1.58551 17.11822,-3.0095 25.68505,-4.47144 0,0 -3.78746,2.84953 -3.78746,2.84953 l 0,0 c -8.56493,1.42411 -17.12745,2.86028 -25.66328,4.45125 -6.861707,1.11737 -13.740801,2.18172 -20.67062,2.77089 0,0 4.046253,-2.93977 4.046253,-2.93977 z"
             id="path3444"
             style="fill:#5aa02c" />
          <path
             inkscape:connector-curvature="0"
             d="m 111.84459,526.62315 c 3.42772,0.0295 6.85564,0.0262 10.28345,0.0212 0.54325,-10e-4 1.08649,-0.002 1.62973,-0.003 0,0 -3.99669,2.90377 -3.99669,2.90377 l 0,0 c -0.54036,-10e-4 -1.08071,-0.002 -1.62106,-0.003 -3.44722,-0.005 -6.89455,-0.008 -10.34168,0.0211 0,0 4.04625,-2.93977 4.04625,-2.93977 z"
             id="path3446"
             style="fill:#5aa02c" />
          <path
             inkscape:connector-curvature="0"
             d="m 106.19175,528.25127 c -2.97844,-0.90966 -5.03896,-3.11694 -7.227774,-5.18336 0,0 4.216014,-2.59835 4.216014,-2.59835 l 0,0 c 2.13293,2.04039 4.17028,4.17075 7.12957,4.96161 0,0 -4.11781,2.8201 -4.11781,2.8201 z"
             id="path3448"
             style="fill:#5aa02c" />
          <path
             inkscape:connector-curvature="0"
             d="m 97.702456,533.69421 c 3.244334,-0.006 6.493754,0.25121 9.684374,-0.4304 1.29684,-0.3366 2.58433,-0.66456 3.85837,-1.07923 0,0 -3.923,3.03637 -3.923,3.03637 l 0,0 c -1.28311,0.38658 -2.57402,0.7314 -3.88179,1.02653 -3.23669,0.55717 -6.512368,0.32284 -9.784207,0.38651 0,0 4.046253,-2.93978 4.046253,-2.93978 z"
             id="path3450"
             style="fill:#5aa02c" />
          <path
             inkscape:connector-curvature="0"
             d="m 90.185918,534.61368 c -2.142621,-0.0176 -4.285356,-0.0131 -6.428028,-0.0115 0,0 4.01448,-2.91669 4.01448,-2.91669 l 0,0 c 2.153263,0.002 4.306587,0.006 6.459801,-0.0115 0,0 -4.046253,2.93977 -4.046253,2.93977 z"
             id="path3452"
             style="fill:#5aa02c" />
          <path
             inkscape:connector-curvature="0"
             d="m 117.87851,529.54998 c -0.24605,-1.67615 -0.38538,-3.35975 -0.71283,-5.02219 0,0 4.37921,-2.34071 4.37921,-2.34071 l 0,0 c 0.33368,1.66277 0.46577,3.34753 0.75124,5.01933 0,0 -4.41762,2.34357 -4.41762,2.34357 z"
             id="path3454"
             style="fill:#5aa02c" />
          <path
             inkscape:connector-curvature="0"
             d="m 131.21467,522.40533 c 0.83974,-3.70391 1.5047,-7.44999 2.10321,-11.2004 0.31893,-2.97845 0.17673,-5.9773 0.059,-8.96249 0,0 4.39757,-2.26123 4.39757,-2.26123 l 0,0 c 0.10477,3.02008 0.24331,6.05109 -0.0499,9.06571 -0.59712,3.73264 -1.24573,7.46224 -2.01719,11.162 0,0 -4.4926,2.19641 -4.4926,2.19641 z"
             id="path3456"
             style="fill:#5aa02c" />
          <path
             inkscape:connector-curvature="0"
             d="m 139.42742,521.28928 c 3.33416,2.3188 6.52798,4.86997 10.15722,6.7178 3.97308,1.40526 8.0507,2.44815 11.98868,3.96334 0,0 -4.06553,2.73251 -4.06553,2.73251 l 0,0 c -3.96298,-1.50854 -8.08316,-2.49341 -12.04436,-3.99344 -3.61331,-1.91523 -6.79431,-4.50188 -10.21636,-6.72622 0,0 4.18035,-2.69399 4.18035,-2.69399 z"
             id="path3458"
             style="fill:#5aa02c" />
          <path
             inkscape:connector-curvature="0"
             d="m 126.03186,532.99232 c 2.09584,0.8829 3.76782,2.46006 5.69592,3.62044 1.60649,0.87334 2.67952,2.29763 3.89493,3.61071 0.17235,0.21697 0.34469,0.43394 0.51704,0.65091 0,0 -4.28834,2.56203 -4.28834,2.56203 l 0,0 c -0.16594,-0.20742 -0.33187,-0.41485 -0.49781,-0.62227 -1.17296,-1.29164 -2.24843,-2.64701 -3.81225,-3.49985 -1.87429,-1.18268 -3.54011,-2.73117 -5.64601,-3.51538 0,0 4.13652,-2.80659 4.13652,-2.80659 z"
             id="path3460"
             style="fill:#5aa02c" />
          <path
             inkscape:connector-curvature="0"
             d="m 112.83925,541.535 c 2.31572,2.27758 4.46093,4.74641 6.99572,6.784 1.71425,1.43835 0.85406,0.7509 2.57752,2.06612 0,0 -4.17942,2.63619 -4.17942,2.63619 l 0,0 c -1.72448,-1.33815 -0.86351,-0.64571 -2.58109,-2.0796 -2.5278,-2.07976 -4.68632,-4.55722 -7.06966,-6.79806 0,0 4.25693,-2.60865 4.25693,-2.60865 z"
             id="path3462"
             style="fill:#5aa02c" />
          <path
             inkscape:connector-curvature="0"
             d="m 112.82775,538.64136 c -0.43888,-2.67829 -1.11498,-5.3001 -1.49039,-7.99252 0,0 4.38299,-2.30885 4.38299,-2.30885 l 0,0 c 0.36051,2.6865 1.01659,5.30042 1.52502,7.95779 0,0 -4.41762,2.34358 -4.41762,2.34358 z"
             id="path3464"
             style="fill:#5aa02c" />
          <path
             inkscape:connector-curvature="0"
             d="m 137.48781,554.66162 c 1.01592,-2.21314 2.54431,-4.12437 3.95497,-6.09058 0,0 4.50599,-1.95344 4.50599,-1.95344 l 0,0 c -1.38496,1.93529 -2.94023,3.79259 -3.90949,5.9848 0,0 -4.55147,2.05922 -4.55147,2.05922 z"
             id="path3466"
             style="fill:#5aa02c" />
          <path
             inkscape:connector-curvature="0"
             d="m 141.62688,559.78545 c 1.93619,-2.89611 4.51752,-5.1963 7.19921,-7.37255 1.39511,-1.16707 2.86702,-2.23327 4.29416,-3.35982 0,0 4.58507,-1.83851 4.58507,-1.83851 l 0,0 c -1.42583,1.14254 -2.91891,2.18885 -4.31818,3.36519 -2.65269,2.13686 -5.31992,4.32736 -7.16404,7.242 0,0 -4.59622,1.96369 -4.59622,1.96369 z"
             id="path3468"
             style="fill:#5aa02c" />
          <path
             inkscape:connector-curvature="0"
             d="m 128.49489,551.70422 c 2.35602,-2.58852 4.12358,-5.50011 5.33815,-8.76928 0.7113,-1.76192 1.32069,-3.55466 1.7961,-5.39325 0,0 4.48148,-2.145 4.48148,-2.145 l 0,0 c -0.46386,1.86605 -1.06874,3.68446 -1.81709,5.45791 -1.17082,3.29779 -2.84697,6.27071 -5.20241,8.88594 0,0 -4.59623,1.96368 -4.59623,1.96368 z"
             id="path3470"
             style="fill:#5aa02c" />
        </g>
        <rect
           style="fill:#5aa02c"
           id="rect3530-1"
           width="19.192898"
           height="162.63457"
           x="267.18536"
           y="534.659" />
        <rect
           style="fill:#5aa02c"
           id="rect3530-1-7"
           width="19.192898"
           height="109.09649"
           x="235.87062"
           y="596.27832" />
        <rect
           style="fill:#5aa02c"
           id="rect3530-1-0"
           width="19.192898"
           height="162.63457"
           x="299.51025"
           y="548.80115" />
        <path
           style="fill:#5aa02c"
           id="path3598"
           sodipodi:type="arc"
           sodipodi:cx="-625.82526"
           sodipodi:cy="160.86681"
           sodipodi:rx="81.317284"
           sodipodi:ry="69.19545"
           sodipodi:start="0"
           sodipodi:end="3.1415927"
           d="m -544.50797,160.86681 a 81.317284,69.19545 0 0 1 -40.65865,59.92501 81.317284,69.19545 0 0 1 -81.31728,0 81.317284,69.19545 0 0 1 -40.65864,-59.92502 l 81.31728,10e-6 z"
           transform="matrix(0,-1,1,0,0,0)" />
        <rect
           style="fill:#5aa02c"
           id="rect3530-1-7-0"
           width="19.192898"
           height="32.32489"
           x="235.87061"
           y="545.77069" />
        <path
           style="fill:#d4ff2a"
           id="path3598-1"
           sodipodi:type="arc"
           sodipodi:cx="-626.22528"
           sodipodi:cy="170.46324"
           sodipodi:rx="55.200787"
           sodipodi:ry="46.972095"
           sodipodi:start="0"
           sodipodi:end="3.1415927"
           d="m -571.02449,170.46324 a 55.200787,46.972095 0 0 1 -27.6004,40.67903 55.200787,46.972095 0 0 1 -55.20079,0 55.200787,46.972095 0 0 1 -27.60039,-40.67903 l 55.20079,0 z"
           transform="matrix(0,-1,1,0,0,0)" />
        <flowRoot
           xml:space="preserve"
           id="flowRoot3677"
           style="font-style:normal;font-variant:normal;font-weight:normal;font-stretch:normal;font-size:180px;line-height:125%;font-family:System;-inkscape-font-specification:System;letter-spacing:0px;word-spacing:0px;fill:#abc837;fill-opacity:1;stroke:none;stroke-width:1px;stroke-linecap:butt;stroke-linejoin:miter;stroke-opacity:1"
           transform="translate(-44.446712,-14.142135)"><flowRegion
             id="flowRegion3679"><rect
               id="rect3681"
               width="170.71577"
               height="220.21326"
               x="363.65491"
               y="526.07275"
               style="font-style:normal;font-variant:normal;font-weight:normal;font-stretch:normal;font-size:180px;font-family:System;-inkscape-font-specification:System;fill:#abc837" /></flowRegion><flowPara
             style="-inkscape-font-specification:'Zilla Slab';font-family:'Zilla Slab';font-weight:normal;font-style:normal;font-stretch:normal;font-variant:normal"
             id="flowPara3683">2</flowPara></flowRoot>      </g>
      <text
         sodipodi:linespacing="125%"
         id="text3754"
         y="746.28595"
         x="52.527931"
         style="font-style:normal;font-weight:normal;font-size:20px;line-height:125%;font-family:sans-serif;letter-spacing:0px;word-spacing:0px;fill:#000000;fill-opacity:1;stroke:none;stroke-width:1px;stroke-linecap:butt;stroke-linejoin:miter;stroke-opacity:1;"
         xml:space="preserve"><tspan
           style="-inkscape-font-specification:'Zilla Slab Highlight';font-family:'Zilla Slab Highlight';font-weight:normal;font-style:normal;font-stretch:normal;font-variant:normal"
           id="tspan3762"
           y="746.28595"
           x="52.527931"
           sodipodi:role="line">An open-source static website generator</tspan></text>
    </g>
  </g>
</svg>
